<svg width="32" height="32" viewBox="0 0 32 32" fill="none" xmlns="http://www.w3.org/2000/svg">
<path d="M14 12H15.3333V11.9967L14 12ZM8.12841 17.3065L9.40791 17.6815C9.51947 17.3009 9.45578 16.8904 9.23419 16.5615C9.01259 16.2325 8.65603 16.0193 8.26138 15.9799L8.12841 17.3065ZM28.6667 12L30 12.0015V12H28.6667ZM28.6667 12.0134L27.3333 12.0119V12.0134H28.6667ZM22.7951 17.3065L24.0745 17.6815C24.1861 17.3009 24.1224 16.8904 23.9008 16.5615C23.6792 16.2325 23.3227 16.0193 22.928 15.9799L22.7951 17.3065ZM8.66666 5.33334C4.98475 5.33334 2 8.31812 2 12H4.66666C4.66666 9.79087 6.45753 8 8.66666 8V5.33334ZM15.3333 11.9833C15.3243 8.30906 12.343 5.33334 8.66669 5.33334V8C10.8725 8 12.6613 9.78544 12.6667 11.9899L15.3334 11.9833H15.3333ZM15.3333 11.9967V11.9833L12.6667 11.9899L12.6667 12.0033L15.3333 11.9967L15.3333 11.9967ZM15.3333 13.5563V12H12.6667V13.5563H15.3333ZM13.2219 22.5005C14.6104 19.7235 15.3333 16.6612 15.3333 13.5563H12.6667C12.6667 16.2472 12.0402 18.9012 10.8368 21.308L13.2219 22.5005V22.5005ZM12.2444 24.4556L13.2219 22.5005L10.8368 21.308L9.85925 23.2629L12.2444 24.4556ZM6.87781 26.2444C8.85372 27.2324 11.2564 26.4315 12.2444 24.4556L9.85925 23.2629C9.52994 23.9216 8.72903 24.1885 8.07041 23.8592L6.87784 26.2444H6.87781ZM5.08897 20.8779C4.101 22.8537 4.90191 25.2564 6.87781 26.2444L8.07041 23.8592C7.41178 23.53 7.14478 22.7291 7.47409 22.0704L5.08894 20.8779H5.08897ZM6.06647 18.9228L5.08897 20.8779L7.47409 22.0704L8.45162 20.1153L6.0665 18.9228H6.06647ZM6.84891 16.9315C6.64856 17.6151 6.38709 18.2816 6.0665 18.9228L8.45162 20.1153C8.84347 19.3317 9.16303 18.5171 9.40791 17.6815L6.84891 16.9315ZM2 12C2 15.4556 4.62809 18.2957 7.99544 18.6332L8.26134 15.9798C6.24322 15.7776 4.66666 14.072 4.66666 12H2V12ZM23.3333 5.33334C19.6515 5.33334 16.6667 8.31812 16.6667 12H19.3333C19.3333 9.79087 21.1242 8 23.3333 8V5.33334ZM30 12C30 8.31809 27.0152 5.33334 23.3333 5.33334V8C25.5425 8 27.3333 9.79087 27.3333 12H30ZM30 12.0149V12.0015L27.3333 11.9985V12.0119L30 12.015V12.0149ZM30 13.5563V12.0134H27.3333L27.3333 13.5563H30ZM27.8885 22.5005C29.2771 19.7235 30 16.6612 30 13.5563H27.3333C27.3333 16.2472 26.7068 18.9012 25.5033 21.308L27.8885 22.5005V22.5005ZM26.9111 24.4556L27.8885 22.5005L25.5033 21.308L24.5259 23.2629L26.9111 24.4556ZM21.5444 26.2444C23.5204 27.2324 25.9231 26.4315 26.9111 24.4556L24.5259 23.2629C24.1965 23.9216 23.3957 24.1885 22.7371 23.8592L21.5444 26.2444ZM19.7556 20.8779C18.7676 22.8537 19.5685 25.2564 21.5444 26.2444L22.7371 23.8592C22.0784 23.53 21.8115 22.7291 22.1408 22.0704L19.7556 20.8779ZM20.7331 18.9228L19.7556 20.8779L22.1408 22.0704L23.1182 20.1153L20.7331 18.9228ZM21.5156 16.9315C21.3152 17.6151 21.0537 18.2816 20.7331 18.9228L23.1182 20.1153C23.5101 19.3317 23.8296 18.5171 24.0745 17.6815L21.5156 16.9315ZM16.6667 12C16.6667 15.4556 19.2948 18.2957 22.6621 18.6332L22.928 15.9799C20.9099 15.7776 19.3333 14.072 19.3333 12H16.6667V12Z" fill="black"/>
</svg>
